<svg width="156" height="156" viewBox="0 0 156 156" fill="none" xmlns="http://www.w3.org/2000/svg">
<path d="M153.431 77.9922C153.431 119.414 119.853 152.992 78.4312 152.992C37.0098 152.992 3.43115 119.414 3.43115 77.9922C3.43115 36.5708 37.0098 2.99219 78.4312 2.99219C119.853 2.99219 153.431 36.5708 153.431 77.9922Z" fill="#4D5E81"/>
<path d="M77.5303 109.68V77.0922M77.5303 77.0922V48.3052M77.5303 77.0922H48.7437M77.5303 77.0922H110.119M153.431 77.9922C153.431 119.414 119.853 152.992 78.4312 152.992C37.0098 152.992 3.43115 119.414 3.43115 77.9922C3.43115 36.5708 37.0098 2.99219 78.4312 2.99219C119.853 2.99219 153.431 36.5708 153.431 77.9922Z" stroke="white" stroke-width="5"/>
</svg>
