<svg width="67" height="67" viewBox="0 0 67 67" fill="none" xmlns="http://www.w3.org/2000/svg">
<path d="M34.4011 27.5378C33.7811 27.5378 33.2611 27.3278 32.8411 26.9078C32.4211 26.4878 32.2111 25.9678 32.2111 25.3478C32.2111 24.7278 32.4211 24.2078 32.8411 23.7878C33.2611 23.3678 33.7811 23.1578 34.4011 23.1578C35.0011 23.1578 35.5111 23.3678 35.9311 23.7878C36.3511 24.2078 36.5611 24.7278 36.5611 25.3478C36.5611 25.9678 36.3511 26.4878 35.9311 26.9078C35.5111 27.3278 35.0011 27.5378 34.4011 27.5378ZM36.0811 29.7278V46.2578H32.6611V29.7278H36.0811Z" fill="white"/>
<path d="M33.9111 65.1484C51.3081 65.1484 65.4111 51.0454 65.4111 33.6484C65.4111 16.2515 51.3081 2.14844 33.9111 2.14844C16.5142 2.14844 2.41113 16.2515 2.41113 33.6484C2.41113 51.0454 16.5142 65.1484 33.9111 65.1484Z" stroke="white" stroke-width="3"/>
</svg>
